<svg width="608" height="205" viewBox="0 0 608 205" fill="none" xmlns="http://www.w3.org/2000/svg">
<path d="M129.206 10.2838C131.848 12.7558 133.063 14.4223 133.495 18.0494C133.068 21.7452 132.349 22.5196 129.518 24.8463C128.693 25.5256 127.868 26.205 127.018 26.9049C122.704 30.1935 118.311 33.3581 113.87 36.4713C110.171 39.0646 106.529 41.7283 102.893 44.4088C90.0868 53.8245 77.2091 63.1284 64.1308 72.1639C54.1403 78.6005 54.1403 78.6005 46.1432 87.0963C46.0772 90.5277 46.2829 93.0132 48.4706 95.7674C52.971 100.185 57.7326 103.919 62.8932 107.534C64.4805 108.663 66.0678 109.792 67.6549 110.921C68.4198 111.461 69.1847 112.002 69.9728 112.559C72.9001 114.633 75.8045 116.736 78.7057 118.846C79.5526 119.46 80.3995 120.073 81.2721 120.706C84.0944 122.803 84.0944 122.803 84.5807 125.721C83.9453 130.623 81.789 132.874 78.1432 136.096C69.2996 142.621 63.2248 146.069 52.1432 145.096C42.9785 143.167 36.2438 137.932 29.1432 132.096C28.5984 131.658 28.0536 131.22 27.4923 130.769C14.1221 120.012 2.48516 108.974 0.143219 91.0963C-0.862117 79.8451 3.53207 69.5795 9.97134 60.526C12.4432 57.7607 15.057 55.6426 18.0182 53.4088C18.5877 52.978 19.1573 52.5472 19.744 52.1034C24.8831 48.2387 30.111 44.4998 35.3581 40.7838C39.5555 37.8102 43.725 34.7983 47.8932 31.7838C48.6457 31.2398 49.3982 30.6958 50.1735 30.1354C51.7151 29.0209 53.2566 27.9063 54.798 26.7916C57.1662 25.0797 59.5354 23.369 61.9049 21.6588C63.0709 20.8171 63.0709 20.8171 64.2604 19.9584C65.7926 18.8526 67.3252 17.7473 68.8581 16.6424C72.0865 14.3138 75.3103 11.9807 78.5065 9.60802C79.4591 8.9029 80.4117 8.19778 81.3932 7.4713C82.1821 6.88091 82.971 6.29052 83.7838 5.68223C99.0559 -4.58345 115.29 0.343966 129.206 10.2838Z" fill="#22BDD1"/>
<path d="M128.159 65.9798C135.652 71.4522 142.434 77.7102 149.144 84.097C150.292 85.1488 150.292 85.1488 151.464 86.222C159.718 94.0056 165.568 103.712 166.272 115.199C166.572 126.807 162.206 137.519 154.831 146.472C152.382 149.032 149.919 151.032 146.94 152.945C142.432 155.891 138.06 158.989 133.706 162.159C132.127 163.305 130.547 164.451 128.968 165.597C128.169 166.177 127.37 166.757 126.547 167.355C124.215 169.045 121.878 170.729 119.538 172.409C112.895 177.185 106.271 181.977 99.7517 186.921C74.6675 205.937 74.6675 205.937 57.1436 204.097C49.162 202.328 43.1746 198.512 37.1436 193.097C36.5661 192.675 35.9886 192.254 35.3936 191.82C34.1436 190.097 34.1436 190.097 33.46 186.827C34.4751 181.288 37.641 179.56 42.0811 176.409C43.3031 175.503 43.3031 175.503 44.5498 174.578C47.0631 172.724 49.5987 170.907 52.1436 169.097C52.8798 168.569 53.616 168.041 54.3745 167.496C57.8549 165.003 61.3526 162.536 64.8662 160.089C69.3065 156.994 73.6974 153.834 78.0811 150.659C78.8238 150.122 79.5665 149.585 80.3318 149.031C83.382 146.824 86.4307 144.614 89.4785 142.403C91.8036 140.717 94.1297 139.032 96.4561 137.347C97.1998 136.807 97.9435 136.267 98.7097 135.711C102.138 133.23 105.58 130.782 109.093 128.421C109.696 128.014 110.3 127.607 110.922 127.188C112.521 126.116 114.129 125.057 115.737 123.999C118.15 122.092 119.186 120.986 120.144 118.097C120.071 114.079 119.811 111.868 117.151 108.796C113.427 105.272 109.228 102.347 105.081 99.347C104.242 98.7286 103.403 98.1103 102.539 97.4732C98.818 94.7345 95.0937 92.0325 91.2295 89.4993C83.6181 84.3494 83.6181 84.3494 82.2451 80.7259C81.9729 76.7785 82.7209 74.6887 85.0186 71.472C86.5654 70.2963 86.5654 70.2963 88.1436 69.097C88.9067 68.5079 89.6698 67.9188 90.4561 67.3118C102.732 58.1984 115.113 57.8346 128.159 65.9798Z" fill="#57C288"/>
<path d="M537.456 84.7135C543.663 90.0297 547.585 94.8584 548.48 103.245C548.565 110.244 548.125 115.264 544.144 121.096C543.608 121.983 543.071 122.87 542.519 123.784C536.707 129.442 529.298 131.892 521.331 132.284C513.282 132.147 507.218 129.956 501.288 124.338C497.057 119.889 494.775 116.223 494.144 110.096C494.051 109.313 493.958 108.529 493.863 107.721C493.434 100.87 495.232 95.71 499.144 90.0963C508.914 79.4397 525.019 76.016 537.456 84.7135Z" fill="#525253"/>
<path d="M259.144 67.0967C260.55 68.9717 260.55 68.9717 261.144 71.0967C260.683 73.2373 260.683 73.2373 259.769 75.3467C259.472 76.0531 259.176 76.7595 258.87 77.4873C258.631 78.0184 258.391 78.5495 258.144 79.0967C255.103 78.636 252.946 77.9916 250.206 76.5342C244.383 73.9058 235.818 73.7678 229.843 75.9287C227.839 77.1511 227.839 77.1511 226.144 80.0967C226.276 83.2761 226.373 85.3142 228.656 87.6318C232.195 89.7153 235.869 90.5403 239.831 91.5342C257.723 96.3036 257.723 96.3036 263.144 104.097C265.271 108.351 264.734 113.489 264.144 118.097C261.31 124.728 255.653 128.461 249.144 131.097C237.31 133.894 224.434 132.364 213.824 126.511C212.144 125.097 212.144 125.097 211.281 123.167C211.036 119.465 213.205 117.152 215.144 114.097C216.231 114.621 216.231 114.621 217.339 115.155C224.457 118.61 224.457 118.61 232.144 120.097C233.538 120.189 233.538 120.189 234.96 120.284C241.646 120.627 241.646 120.627 247.894 118.597C250.351 115.867 250.482 115.328 250.519 111.847C250.395 110.609 250.271 109.372 250.144 108.097C246.771 106.919 243.395 105.876 239.937 104.983C219.226 99.6243 219.226 99.6243 214.144 92.0967C211.452 86.5792 211.588 80.9405 213.144 75.0967C216.278 69.8448 220.377 66.228 226.144 64.0967C236.532 61.5227 249.645 61.7721 259.144 67.0967Z" fill="#525252"/>
<path d="M266.144 81.0965C270.764 81.0965 275.384 81.0965 280.144 81.0965C281.981 85.294 283.814 89.4932 285.643 93.6942C286.265 95.1224 286.889 96.5501 287.514 97.9774C288.413 100.031 289.308 102.087 290.202 104.143C290.481 104.779 290.761 105.415 291.048 106.069C292.337 109.043 293.501 111.913 294.144 115.097C294.804 115.097 295.464 115.097 296.144 115.097C296.308 114.063 296.308 114.063 296.476 113.008C297.249 109.638 298.463 106.695 299.831 103.518C300.094 102.906 300.356 102.294 300.627 101.664C301.179 100.379 301.734 99.0945 302.291 97.8113C303.146 95.8411 303.993 93.8675 304.839 91.8934C308.996 82.2441 308.996 82.2441 310.144 81.0965C312.163 81.0241 314.185 81.0127 316.206 81.034C317.863 81.0475 317.863 81.0475 319.554 81.0613C320.408 81.0729 321.263 81.0845 322.144 81.0965C319.736 88.9314 316.484 96.2754 313.081 103.722C311.907 106.298 310.735 108.877 309.565 111.456C309.274 112.099 308.982 112.742 308.681 113.405C306.822 117.526 305.056 121.676 303.347 125.862C302.705 127.416 302.705 127.416 302.05 129C301.263 130.918 300.493 132.842 299.743 134.775C297.18 140.964 293.94 145.538 288.144 149.096C279.7 151.254 273.65 150.464 266.144 146.096C267.134 143.126 268.124 140.157 269.144 137.097C272.144 137.097 272.144 137.097 274.144 138.097C280.06 138.693 280.06 138.693 285.206 136.034C287.261 132.918 287.419 131.887 286.783 128.325C285.313 123.202 282.816 118.45 280.519 113.659C279.425 111.337 278.332 109.014 277.241 106.69C276.71 105.565 276.179 104.44 275.632 103.28C273.677 99.0998 271.797 94.8906 269.956 90.659C269.677 90.0223 269.399 89.3856 269.112 88.7296C268.016 86.2048 267.015 83.7097 266.144 81.0965Z" fill="#535354"/>
<path d="M558.143 81.0967C562.103 81.0967 566.063 81.0967 570.143 81.0967C570.158 81.9688 570.172 82.8409 570.188 83.7395C570.249 87.0033 570.323 90.2663 570.406 93.5295C570.439 94.9367 570.467 96.3439 570.49 97.7512C570.524 99.7849 570.576 101.817 570.632 103.851C570.658 105.071 570.684 106.291 570.711 107.548C571.215 111.683 572.268 114.391 574.143 118.097C576.949 120.22 579.14 120.341 582.581 119.972C586.778 119.378 589.214 118.292 592.143 115.097C594.129 111.112 594.44 107.688 594.557 103.265C594.596 101.972 594.635 100.68 594.675 99.3486C594.706 97.9938 594.737 96.639 594.768 95.2842C594.807 93.9098 594.846 92.5355 594.886 91.1611C594.98 87.8064 595.065 84.4518 595.143 81.0967C599.103 81.0967 603.063 81.0967 607.143 81.0967C607.143 97.5967 607.143 114.097 607.143 131.097C603.183 131.097 599.223 131.097 595.143 131.097C594.813 129.447 594.483 127.797 594.143 126.097C593.736 126.557 593.329 127.017 592.909 127.491C589.067 130.985 583.679 131.932 578.643 132.472C572.77 131.842 567.958 130.517 563.268 126.847C558.674 120.9 557.7 115.833 557.85 108.538C557.855 107.749 557.859 106.96 557.863 106.147C557.88 103.651 557.917 101.155 557.956 98.6592C557.971 96.9567 557.985 95.2542 557.997 93.5518C558.03 89.3997 558.081 85.2484 558.143 81.0967Z" fill="#515151"/>
<path d="M372.565 86.0732C376.893 91.6213 377.581 97.7669 377.437 104.534C377.432 105.3 377.428 106.065 377.424 106.854C377.407 109.269 377.369 111.682 377.331 114.097C377.316 115.746 377.302 117.396 377.29 119.046C377.257 123.063 377.206 127.08 377.144 131.097C373.184 131.097 369.224 131.097 365.144 131.097C365.129 130.153 365.114 129.21 365.099 128.238C365.038 124.725 364.964 121.212 364.881 117.699C364.848 116.182 364.82 114.664 364.797 113.146C364.763 110.958 364.711 108.772 364.655 106.585C364.629 105.27 364.603 103.956 364.576 102.602C364.125 98.9423 363.325 97.0278 361.144 94.0966C357.647 91.3769 353.383 91.573 349.144 92.0966C345.63 93.4239 344.463 94.5573 342.55 97.7841C340.076 103.835 340.564 110.599 340.456 117.034C340.423 118.399 340.388 119.765 340.353 121.13C340.27 124.452 340.201 127.774 340.144 131.097C336.184 131.097 332.224 131.097 328.144 131.097C328.144 114.597 328.144 98.0966 328.144 81.0966C332.104 81.0966 336.064 81.0966 340.144 81.0966C340.474 82.4166 340.804 83.7366 341.144 85.0966C342.195 84.4572 343.247 83.8179 344.331 83.1591C353.826 77.7742 364.236 79.34 372.565 86.0732Z" fill="#4F4F4F"/>
<path d="M435.144 64.097C439.145 62.8381 442.965 62.1224 447.124 63.034C454.278 66.7997 458.156 77.5768 461.727 84.4534C462.901 86.6449 464.127 88.6745 465.542 90.7141C467.144 93.097 467.144 93.097 467.144 95.097C467.804 95.097 468.464 95.097 469.144 95.097C469.376 94.4421 469.608 93.7873 469.847 93.1126C472.569 86.7833 476.405 80.9947 479.967 75.1111C480.942 73.4416 481.824 71.7177 482.679 69.9837C483.994 67.4608 484.876 65.823 487.144 64.097C491.575 63.3734 495.699 63.5628 500.144 64.097C498.803 67.6858 497.2 70.858 495.202 74.1243C494.622 75.0735 494.042 76.0228 493.445 77.0008C492.83 78.0019 492.215 79.003 491.581 80.0345C490.642 81.5941 490.642 81.5941 489.684 83.1853C484.363 91.9645 484.363 91.9645 481.253 95.843C472.964 106.551 473.887 118.009 474.144 131.097C469.854 131.097 465.564 131.097 461.144 131.097C461.211 129.596 461.278 128.096 461.347 126.55C461.622 111.33 458.646 101.988 449.921 89.659C446.723 85.0496 443.833 80.2483 440.894 75.472C440.321 74.5642 439.748 73.6565 439.158 72.7212C438.37 71.4647 438.37 71.4647 437.565 70.1829C437.097 69.4409 436.629 68.6989 436.146 67.9344C435.144 66.097 435.144 66.097 435.144 64.097Z" fill="#525252"/>
<path d="M430.558 84.7494C432.595 86.452 434.467 88.0369 436.144 90.0971C436.144 91.0871 436.144 92.0771 436.144 93.0971C434.464 94.4838 434.464 94.4838 432.269 95.7846C431.549 96.2216 430.83 96.6585 430.089 97.1088C428.144 98.0971 428.144 98.0971 426.144 98.0971C424.477 96.4304 422.81 94.7637 421.144 93.0971C416.793 91.6468 412.883 91.6118 408.456 92.8471C404.634 94.9131 402.522 96.9617 401.144 101.097C400.752 105.963 400.519 110.519 402.331 115.097C405.134 118.189 407.248 119.837 411.48 120.417C417.358 120.682 420.693 119.977 425.144 116.097C425.639 115.107 425.639 115.107 426.144 114.097C430.138 114.712 432.888 116.804 436.144 119.097C434.796 123.813 432.289 126.615 428.144 129.097C418.375 133.197 409.92 133.058 400.144 129.097C394.373 126.145 390.909 121.916 388.144 116.097C387.331 113.222 387.331 113.222 387.144 110.097C387.07 109.357 386.997 108.617 386.921 107.855C386.499 100.915 388.164 95.7943 392.144 90.0971C402.209 79.3144 417.813 76.0259 430.558 84.7494Z" fill="#535353"/>
<path d="M526.331 91.8227C530.635 93.7694 533.416 95.5242 535.143 100.096C536.398 104.912 536.643 108.803 534.581 113.409C532.377 117.164 530.175 119.27 526.143 121.096C520.56 121.968 515.814 121.464 511.143 118.096C507.444 113.326 506.491 109.548 506.756 103.53C507.532 98.647 509.617 95.4108 513.393 92.1587C517.898 90.4181 521.803 90.3188 526.331 91.8227Z" fill="#F9F9F9"/>
<path d="M40.1436 178.097C40.8036 178.427 41.4636 178.757 42.1436 179.097C41.3392 179.777 40.5348 180.458 39.7061 181.159C36.7207 184.581 36.4057 186.639 36.1436 191.097C35.4836 190.767 34.8236 190.437 34.1436 190.097C33.7686 186.909 33.7686 186.909 34.1436 183.097C35.9554 180.956 37.8016 179.707 40.1436 178.097Z" fill="#B1DE6A"/>
</svg>
