<svg width="608" height="205" viewBox="0 0 608 205" fill="none" xmlns="http://www.w3.org/2000/svg">
<path d="M127.243 9.06869C131.008 12.3825 131.008 12.3825 132.267 14.8499C132.472 18.2552 132.534 19.8161 131.267 22.8499C128.705 25.6381 125.719 27.6331 122.579 29.7249C121.714 30.3301 120.849 30.9352 119.958 31.5587C118.212 32.7784 116.459 33.9885 114.699 35.1883C112.05 36.9976 109.442 38.856 106.841 40.7325C105.179 41.9303 103.511 43.1177 101.841 44.3031C97.7177 47.2354 93.617 50.1985 89.5166 53.1624C88.7615 53.7082 88.0063 54.254 87.2283 54.8162C84.9075 56.4938 82.587 58.1718 80.2666 59.8499C77.1836 62.0796 74.1003 64.3087 71.0166 66.5374C70.2757 67.0732 69.5348 67.609 68.7715 68.161C65.2213 70.7259 61.6654 73.2823 58.0948 75.8187C57.1226 76.5096 57.1226 76.5096 56.1309 77.2144C54.9232 78.0715 53.7142 78.9269 52.5039 79.7804C50.2649 81.3688 48.2122 82.9044 46.2666 84.8499C45.6165 90.3425 45.6165 90.3425 47.7823 95.2132C51.0256 98.6554 54.608 101.402 58.3916 104.225C59.1506 104.799 59.9097 105.372 60.6917 105.963C64.7287 109 68.8017 111.972 72.9541 114.85C73.7082 115.376 74.4623 115.902 75.2393 116.444C76.5503 117.353 77.8702 118.25 79.2002 119.131C82.299 121.364 83.2074 122.548 83.9541 126.35C83.0759 130.821 81.786 131.99 78.2666 134.85C77.6621 135.357 77.0575 135.863 76.4346 136.385C68.7019 142.593 62.503 144.175 52.6104 144.248C44.7786 143.315 39.2341 139.791 33.1416 134.975C32.4095 134.402 31.6774 133.829 30.9231 133.239C4.1762 112.033 4.17619 112.033 0.266626 94.8499C-1.03755 79.9733 2.39349 69.7304 11.6455 58.1195C15.973 53.3626 21.2909 49.957 26.5918 46.3917C32.1326 42.6624 37.5297 38.7691 42.8916 34.7874C48.8556 30.3633 54.839 25.9777 60.9041 21.6932C64.3429 19.254 67.7348 16.7604 71.1065 14.2288C71.9502 13.5978 72.7939 12.9668 73.6631 12.3167C75.3161 11.078 76.9648 9.83346 78.6084 8.58236C94.3873 -3.2218 111.21 -2.64998 127.243 9.06869Z" fill="#1AB2C9"/>
<path d="M133.267 69.8498C162.225 92.6656 162.225 92.6656 165.267 109.85C166.555 122.589 164.194 132.977 156.579 143.35C150.56 150.241 142.979 155.194 135.472 160.335C132.373 162.464 129.32 164.655 126.267 166.85C125.135 167.657 124.004 168.465 122.872 169.272C118.767 172.204 114.671 175.149 110.579 178.1C109.831 178.639 109.083 179.177 108.312 179.732C104.241 182.672 100.196 185.641 96.1768 188.651C95.3352 189.279 94.4937 189.907 93.6267 190.554C92.0173 191.757 90.4117 192.966 88.8108 194.181C82.5626 198.848 76.2486 203.211 68.2666 203.85C67.1741 203.945 67.1741 203.945 66.0596 204.041C55.3516 204.564 46.6305 200.218 38.2666 193.85C36.9982 192.891 36.9982 192.891 35.7041 191.912C34.2666 189.85 34.2666 189.85 33.4541 186.6C35.3348 177.92 45.6137 173.09 52.5635 168.385C56.7531 165.538 60.8536 162.573 64.9541 159.6C65.7152 159.048 66.4763 158.497 67.2605 157.929C68.8193 156.8 70.3778 155.67 71.936 154.539C75.7091 151.804 79.4881 149.077 83.2666 146.35C84.7536 145.276 86.2406 144.201 87.7275 143.127C90.8563 140.867 93.9867 138.61 97.1182 136.354C97.9174 135.777 98.7166 135.201 99.54 134.608C101.053 133.517 102.566 132.427 104.079 131.338C106.146 129.848 108.207 128.35 110.267 126.85C111.388 126.037 111.388 126.037 112.531 125.209C113.256 124.676 113.981 124.144 114.728 123.596C115.383 123.117 116.038 122.638 116.713 122.144C119.174 120.093 119.269 118.826 119.642 115.6C119.104 110.221 116.292 107.519 112.268 104.202C109.94 102.439 107.582 100.731 105.204 99.0373C103.507 97.8071 101.811 96.5766 100.114 95.3459C99.2894 94.7515 98.4646 94.157 97.6147 93.5446C94.4396 91.2529 91.2841 88.9361 88.1416 86.5998C87.2109 85.914 86.2802 85.2282 85.3213 84.5217C82.6785 82.3713 82.3421 81.416 81.8916 78.0373C82.5005 72.8618 86.3402 70.6046 90.2393 67.4279C91.2589 66.6596 92.2786 65.8914 93.3291 65.0998C94.3513 64.3212 95.3736 63.5426 96.4268 62.7404C108.52 54.6895 123.036 62.3687 133.267 69.8498Z" fill="#47BA89"/>
<path d="M536.114 82.24C542.663 87.1374 546.745 92.7595 548.266 100.849C549.368 108.588 547.647 114.406 543.266 120.849C538.141 127.053 530.758 129.943 522.946 131.232C515.304 131.643 508.262 128.735 501.891 124.724C495.145 117.336 493.414 110.375 493.786 100.412C494.803 92.8698 498.497 87.6489 504.477 83.0681C513.755 76.7475 526.389 76.4793 536.114 82.24Z" fill="#F7F7F8"/>
<path d="M260.267 67.8492C259.157 71.3359 258.003 74.6241 256.267 77.8492C255.483 77.5811 254.699 77.313 253.892 77.0367C252.695 76.6448 251.499 76.253 250.267 75.8492C249.528 75.5733 248.789 75.2975 248.028 75.0133C241.626 72.7871 235.902 72.1133 229.267 73.8492C225.904 75.7906 225.904 75.7906 224.267 78.8492C223.931 82.0029 223.931 82.0029 225.267 84.8492C230.497 89.0015 237.625 89.8614 243.987 91.3355C250.378 92.9452 255.592 95.0574 260.267 99.8492C263.393 105.094 262.864 110.93 262.267 116.849C259.7 122.267 255.809 125.77 250.286 128.115C239.942 131.29 231.671 131.778 221.267 128.849C220.068 128.522 220.068 128.522 218.845 128.189C214.348 126.844 211.281 125.65 208.267 121.849C209.917 118.549 211.567 115.249 213.267 111.849C214.063 112.271 214.86 112.692 215.681 113.127C216.74 113.674 217.8 114.222 218.892 114.787C220.458 115.605 220.458 115.605 222.056 116.439C228.981 119.481 236.589 120.021 243.704 117.412C247.024 116.213 247.024 116.213 248.267 114.849C248.684 111.433 248.684 111.433 248.267 107.849C245.604 105.323 243.083 104.308 239.563 103.42C238.665 103.181 237.767 102.943 236.841 102.697C234.975 102.219 233.107 101.745 231.239 101.275C223.953 99.3313 217.904 96.8247 212.829 91.0992C210.208 85.6477 209.466 80.5097 211.267 74.6617C213.812 68.9065 218.413 65.3611 224.142 62.9742C236.096 59.5234 249.944 60.8565 260.267 67.8492Z" fill="#F8F8F8"/>
<path d="M557.266 79.8496C561.556 79.8496 565.846 79.8496 570.266 79.8496C570.281 80.8283 570.296 81.8071 570.311 82.8154C570.369 86.4537 570.446 90.0913 570.529 93.729C570.562 95.3021 570.59 96.8754 570.613 98.4487C570.647 100.713 570.699 102.976 570.755 105.24C570.761 105.941 570.768 106.643 570.774 107.365C570.896 111.434 571.275 113.982 574.266 116.85C577.037 117.773 578.833 118.013 581.704 118.037C582.466 118.051 583.228 118.065 584.013 118.08C586.773 117.798 588.057 117.578 590.266 115.85C594.058 108.701 593.813 101.297 593.954 93.3496C593.988 92.0502 594.022 90.7509 594.057 89.4121C594.139 86.2249 594.205 83.0373 594.266 79.8496C598.556 79.8496 602.846 79.8496 607.266 79.8496C607.266 96.3496 607.266 112.85 607.266 129.85C602.976 129.85 598.686 129.85 594.266 129.85C593.771 127.87 593.771 127.87 593.266 125.85C592.724 126.127 592.181 126.404 591.622 126.689C590.549 127.233 590.549 127.233 589.454 127.787C588.392 128.327 588.392 128.327 587.309 128.877C581.641 131.576 576.564 131.416 570.641 129.6C565.353 127.642 561.843 125.392 559.145 120.33C555.946 112.919 556.848 104.692 557.016 96.7871C557.037 95.1419 557.055 93.4968 557.071 91.8516C557.115 87.8503 557.184 83.8502 557.266 79.8496Z" fill="#F6F6F7"/>
<path d="M265.267 79.8496C269.557 79.8496 273.847 79.8496 278.267 79.8496C281.992 87.7303 285.664 95.6336 289.204 103.6C289.51 104.278 289.817 104.957 290.132 105.656C291.414 108.565 292.267 110.634 292.267 113.85C292.927 113.85 293.587 113.85 294.267 113.85C294.851 111.991 294.851 111.991 295.446 110.096C297.408 104.212 299.887 98.5811 302.392 92.9121C302.847 91.8725 303.302 90.8329 303.771 89.7617C307.051 82.2807 307.051 82.2807 308.267 79.8496C312.227 79.8496 316.187 79.8496 320.267 79.8496C317.694 88.2647 314.145 96.1982 310.579 104.225C309.315 107.082 308.054 109.94 306.794 112.799C306.486 113.496 306.178 114.194 305.861 114.913C303.043 121.32 300.334 127.772 297.752 134.279C295.653 139.423 293.316 143.326 288.829 146.662C282.68 148.712 275.65 148.897 269.427 146.971C267.267 145.85 267.267 145.85 266.267 143.6C266.267 140.042 267.499 137.89 269.267 134.85C270.813 135.376 270.813 135.376 272.392 135.912C276.37 136.875 278.429 137.214 282.267 135.85C284.927 133.276 284.927 133.276 286.267 129.85C285.192 125.741 283.49 121.977 281.692 118.139C281.193 117.066 280.693 115.992 280.178 114.887C279.65 113.761 279.123 112.635 278.579 111.475C271.362 95.9475 271.362 95.9475 268.017 88.3496C267.73 87.7046 267.442 87.0596 267.147 86.395C265.267 82.0916 265.267 82.0916 265.267 79.8496Z" fill="#F9F9F9"/>
<path d="M368.267 81.8495C373.384 85.9736 375.06 90.4787 376.267 96.8495C376.423 99.5568 376.503 102.15 376.462 104.85C376.459 105.571 376.456 106.292 376.453 107.035C376.442 109.307 376.417 111.578 376.392 113.85C376.382 115.403 376.372 116.956 376.364 118.51C376.342 122.29 376.308 126.07 376.267 129.85C372.307 129.85 368.347 129.85 364.267 129.85C364.252 128.977 364.237 128.105 364.222 127.207C364.161 123.943 364.087 120.68 364.004 117.417C363.971 116.01 363.943 114.602 363.92 113.195C363.886 111.161 363.834 109.129 363.778 107.096C363.752 105.875 363.726 104.655 363.699 103.398C363.194 99.2526 362.167 96.5555 360.267 92.8495C356.462 90.4189 352.691 90.3838 348.267 90.8495C344.267 92.9625 341.846 94.6022 340.267 98.8495C340.036 101.233 339.911 103.628 339.853 106.021C339.833 106.704 339.814 107.386 339.794 108.089C339.734 110.259 339.688 112.429 339.642 114.6C339.603 116.075 339.564 117.55 339.524 119.025C339.429 122.633 339.344 126.241 339.267 129.85C334.977 129.85 330.687 129.85 326.267 129.85C326.267 113.35 326.267 96.8495 326.267 79.8495C330.227 79.8495 334.187 79.8495 338.267 79.8495C338.597 81.4995 338.927 83.1495 339.267 84.8495C339.947 84.2308 340.628 83.612 341.329 82.9745C349.299 77.2088 359.716 77.3924 368.267 81.8495Z" fill="#F7F7F7"/>
<path d="M434.267 62.8495C439.217 62.8495 444.167 62.8495 449.267 62.8495C450.401 64.8501 451.535 66.8507 452.704 68.912C454.218 71.5616 455.741 74.2061 457.267 76.8495C457.672 77.5541 458.078 78.2587 458.497 78.9847C459.703 81.0698 460.921 83.148 462.142 85.2245C462.522 85.8846 462.903 86.5446 463.296 87.2247C464.23 88.8009 465.241 90.3309 466.267 91.8495C466.927 91.8495 467.587 91.8495 468.267 91.8495C469.896 89.2936 471.407 86.7376 472.892 84.0995C473.803 82.5428 474.716 80.9868 475.63 79.4315C477.239 76.6682 478.779 73.8889 480.247 71.0487C482.052 67.835 483.53 65.3248 486.267 62.8495C490.77 61.8782 494.742 62.1046 499.267 62.8495C497.889 66.5785 496.188 69.7958 494.079 73.162C493.75 73.7063 493.422 74.2506 493.083 74.8114C490.695 78.7226 488.128 82.4474 485.438 86.1581C475.116 100.851 472.072 111.938 473.267 129.849C468.977 129.849 464.687 129.849 460.267 129.849C460.368 128.323 460.47 126.797 460.575 125.224C461.146 107.812 456.273 97.4766 446.196 83.5511C443.397 79.6325 440.859 75.5695 438.329 71.4745C437.911 70.8202 437.493 70.1659 437.062 69.4918C434.267 65.0817 434.267 65.0817 434.267 62.8495Z" fill="#F8F8F9"/>
<path d="M429.267 82.8499C432.329 85.3499 432.329 85.3499 434.267 87.8499C434.267 89.1699 434.267 90.4899 434.267 91.8499C429.793 94.7749 429.793 94.7749 427.267 95.8499C424.668 95.1816 423.501 94.0588 421.517 92.2874C418.237 90.1919 415.09 89.6286 411.267 89.8499C406.892 91.0977 404.028 92.8501 401.267 96.4749C399.723 101.684 398.94 106.874 401.216 111.979C403.633 115.631 405.864 117.906 410.267 118.85C415.506 119.326 418.801 118.654 423.267 115.85C423.927 114.86 424.587 113.87 425.267 112.85C429.179 114.006 432.141 115.205 435.267 117.85C433.336 123.866 429.628 125.922 424.267 128.85C415.768 132.13 408.446 131.392 400.267 127.85C394.183 124.457 389.312 119.641 386.779 113.022C384.866 104.903 385.543 97.2342 389.72 90.0061C398.651 77.5571 416.312 74.3691 429.267 82.8499Z" fill="#F7F8F8"/>
<path d="M529.579 91.4119C533.05 94.5597 534.425 97.2624 535.267 101.849C535.509 107.805 534.346 112.34 530.267 116.849C525.494 119.75 521.735 120.292 516.345 119.412C512.455 118.359 510.281 116.601 508.267 113.123C505.991 108.024 505.533 103.194 507.267 97.8494C509.468 94.1964 512.045 91.6209 515.642 89.3494C520.876 88.3525 524.87 89.1903 529.579 91.4119Z" fill="#282C36"/>
<path d="M71.2666 154.85C71.9266 155.18 72.5866 155.51 73.2666 155.85C71.8137 157.189 70.3541 158.521 68.8916 159.85C68.0795 160.592 67.2674 161.335 66.4307 162.1C64.2666 163.85 64.2666 163.85 62.2666 163.85C61.9366 164.51 61.6066 165.17 61.2666 165.85C60.2766 166.18 59.2866 166.51 58.2666 166.85C57.9366 167.51 57.6066 168.17 57.2666 168.85C54.3343 170.831 51.7556 172.204 48.2666 172.85C52.5585 168.208 57.4314 164.682 62.5791 161.037C63.833 160.141 63.833 160.141 65.1123 159.227C67.1608 157.763 69.2122 156.305 71.2666 154.85Z" fill="#81CB6B"/>
<path d="M46.2666 172.85C46.9266 173.18 47.5866 173.51 48.2666 173.85C47.1103 174.845 47.1103 174.845 45.9307 175.861C44.9172 176.753 43.9042 177.645 42.8916 178.537C42.3837 178.972 41.8758 179.407 41.3525 179.855C38.2552 182.606 36.4576 184.868 35.2666 188.85C35.9266 188.85 36.5866 188.85 37.2666 188.85C36.9366 189.84 36.6066 190.83 36.2666 191.85C34.2666 189.85 34.2666 189.85 33.5791 186.725C34.6268 180.819 38.6255 178.336 43.2666 174.85C44.2566 174.19 45.2466 173.53 46.2666 172.85Z" fill="#9AD05F"/>
<path d="M86.2666 143.85C86.2666 144.84 86.2666 145.83 86.2666 146.85C84.4385 148.639 84.4385 148.639 82.0166 150.475C80.8332 151.391 80.8332 151.391 79.626 152.326C77.4212 153.75 75.8281 154.415 73.2666 154.85C77.2366 150.631 81.575 147.237 86.2666 143.85Z" fill="#63BF7D"/>
<path d="M40.2666 36.8496C40.9266 37.1796 41.5866 37.5096 42.2666 37.8496C40.4799 39.3555 38.6871 40.8542 36.8916 42.3496C35.8939 43.1849 34.8961 44.0202 33.8682 44.8809C31.2666 46.8496 31.2666 46.8496 29.2666 46.8496C30.532 43.0534 32.0488 42.3628 35.3291 40.1621C36.2482 39.5395 37.1673 38.9169 38.1143 38.2754C38.8245 37.8049 39.5348 37.3344 40.2666 36.8496Z" fill="#25C0D0"/>
<path d="M71.2666 154.85C71.9266 155.18 72.5866 155.51 73.2666 155.85C70.2966 158.49 67.3266 161.13 64.2666 163.85C63.2766 163.19 62.2866 162.53 61.2666 161.85C64.5666 159.54 67.8666 157.23 71.2666 154.85Z" fill="#6DBF75"/>
<path d="M16.2666 53.8496C17.2566 54.1796 18.2466 54.5096 19.2666 54.8496C18.5241 55.4271 17.7816 56.0046 17.0166 56.5996C14.6057 58.5721 12.4262 60.6101 10.2666 62.8496C10.7386 58.6014 13.2332 56.6497 16.2666 53.8496Z" fill="#27C6D6"/>
<path d="M48.2666 30.8496C49.2566 31.1796 50.2466 31.5096 51.2666 31.8496C48.9566 33.4996 46.6466 35.1496 44.2666 36.8496C44.2666 35.8596 44.2666 34.8696 44.2666 33.8496C46.0791 32.0996 46.0791 32.0996 48.2666 30.8496Z" fill="#22BCD4"/>
</svg>
