<svg width="466" height="466" viewBox="0 0 466 466" fill="none" xmlns="http://www.w3.org/2000/svg">
<rect width="466" height="466" rx="18" fill="#F9F9F9"/>
<path d="M324.094 66.1097C329.005 70.7032 331.262 73.7999 332.065 80.54C331.272 87.4077 329.936 88.8466 324.675 93.1702C323.142 94.4326 321.609 95.695 320.03 96.9956C312.012 103.107 303.85 108.987 295.597 114.772C288.724 119.591 281.955 124.541 275.2 129.522C251.402 147.019 227.473 164.307 203.17 181.097C184.605 193.058 184.605 193.058 169.745 208.845C169.622 215.222 170.004 219.84 174.07 224.958C182.432 233.167 191.281 240.106 200.87 246.823C203.82 248.921 206.769 251.018 209.719 253.116C211.14 254.121 212.561 255.125 214.026 256.16C219.466 260.014 224.863 263.923 230.254 267.844C231.827 268.984 233.401 270.125 235.023 271.299C240.267 275.197 240.267 275.197 241.171 280.62C239.99 289.729 235.983 293.91 229.208 299.899C212.775 312.024 201.486 318.43 180.894 316.623C163.864 313.038 151.349 303.311 138.155 292.466C137.143 291.652 136.13 290.838 135.087 290C110.242 270.011 88.618 249.5 84.2661 216.278C82.398 195.371 90.5634 176.295 102.529 159.471C107.122 154.333 111.98 150.397 117.482 146.246C118.54 145.446 119.599 144.645 120.689 143.82C130.239 136.639 139.953 129.691 149.704 122.786C157.503 117.26 165.251 111.663 172.997 106.062C174.395 105.051 175.793 104.04 177.234 102.999C180.099 100.928 182.963 98.8564 185.828 96.7851C190.228 93.6039 194.631 90.4251 199.034 87.2471C201.2 85.683 201.2 85.683 203.411 84.0873C206.258 82.0325 209.106 79.9786 211.954 77.9255C217.954 73.5984 223.944 69.2629 229.883 64.8539C231.654 63.5437 233.424 62.2334 235.248 60.8834C236.714 59.7863 238.18 58.6892 239.69 57.5589C268.069 38.4829 298.236 47.6392 324.094 66.1097Z" fill="#22BDD1"/>
<path d="M322.15 169.606C336.073 179.775 348.675 191.404 361.144 203.272C363.278 205.227 363.278 205.227 365.456 207.221C380.794 221.684 391.664 239.721 392.973 261.066C393.529 282.638 385.418 302.542 371.713 319.179C367.161 323.936 362.584 327.653 357.05 331.207C348.672 336.683 340.547 342.44 332.457 348.33C329.523 350.46 326.588 352.589 323.653 354.718C322.168 355.796 320.684 356.874 319.155 357.984C314.821 361.126 310.477 364.254 306.13 367.377C293.785 376.252 281.477 385.155 269.362 394.343C222.75 429.68 222.75 429.68 190.186 426.26C175.355 422.973 164.229 415.882 153.022 405.819C151.949 405.036 150.875 404.253 149.77 403.446C147.447 400.245 147.447 400.245 146.177 394.169C148.063 383.875 153.946 380.665 162.197 374.81C164.468 373.125 164.468 373.125 166.784 371.406C171.455 367.963 176.166 364.584 180.895 361.222C182.263 360.24 183.631 359.259 185.041 358.248C191.508 353.614 198.008 349.029 204.537 344.483C212.788 338.732 220.947 332.859 229.093 326.961C230.473 325.962 231.854 324.964 233.276 323.935C238.944 319.833 244.609 315.727 250.272 311.618C254.593 308.485 258.915 305.354 263.238 302.223C264.62 301.22 266.002 300.216 267.426 299.182C273.797 294.573 280.193 290.023 286.72 285.637C287.842 284.88 288.963 284.124 290.119 283.345C293.091 281.354 296.079 279.386 299.067 277.42C303.551 273.875 305.477 271.819 307.255 266.452C307.119 258.986 306.638 254.878 301.695 249.169C294.774 242.62 286.971 237.185 279.266 231.61C277.707 230.461 276.148 229.312 274.541 228.128C267.627 223.039 260.707 218.018 253.526 213.311C239.382 203.741 239.382 203.741 236.831 197.008C236.325 189.672 237.715 185.789 241.985 179.812C244.859 177.627 244.859 177.627 247.792 175.398C249.21 174.304 250.628 173.209 252.089 172.081C274.901 155.146 297.908 154.47 322.15 169.606Z" fill="#57C288"/>
<path d="M158.596 377.945C159.822 378.559 161.049 379.172 162.312 379.804C160.818 381.068 159.323 382.333 157.783 383.636C152.235 389.996 151.65 393.82 151.163 402.102C149.936 401.489 148.71 400.876 147.446 400.244C146.75 394.321 146.75 394.321 147.446 387.236C150.813 383.259 154.244 380.937 158.596 377.945Z" fill="#B1DE6A"/>
</svg>
